# xmcd
#
# Track frame offsets:
#	150
#	9350
#	24022
#	39212
#	58367
#	76387
#	98137
#	119137
#
# Disc length: 1941 seconds
#
# Revision: 1
# Processed by: cddbd v1.5.1PL0 Copyright (c) Steve Scherf et al.
# Submitted via: CDex 1.50Beta5
#
DISCID=59079308
DTITLE=The Jerry Lee Phantom - 00.0.Movie
DYEAR=1998
DGENRE=Rock
TTITLE0=キ・ラ・ラ
TTITLE1=Dr. Lee Ryder
TTITLE2=屋根裏の宇宙飛行士
TTITLE3=枯れた大地へ
TTITLE4=さよならベッキー
TTITLE5=Film
TTITLE6=ロマン
TTITLE7=恋人と旅
EXTD=
EXTT0=
EXTT1=
EXTT2=
EXTT3=
EXTT4=
EXTT5=
EXTT6=
EXTT7=
PLAYORDER=
